Coordinates
version=1
nRows=9
nColumns=36
inDegrees=yes

Units are S.I. units (second, meters, Newtons, ...)
If the header above contains a line with 'inDegrees', this indicates whether rotational values are in degrees (yes) or radians (no).

endheader
time	pelvis_tilt	pelvis_list	pelvis_rotation	pelvis_tx	pelvis_ty	pelvis_tz	hip_flexion_r	hip_adduction_r	hip_rotation_r	knee_angle_r	knee_angle_r_beta	ankle_angle_r	subtalar_angle_r	mtp_angle_r	hip_flexion_l	hip_adduction_l	hip_rotation_l	knee_angle_l	knee_angle_l_beta	ankle_angle_l	subtalar_angle_l	mtp_angle_l	lumbar_extension	lumbar_bending	lumbar_rotation	arm_flex_r	arm_add_r	arm_rot_r	elbow_flex_r	pro_sup_r	arm_flex_l	arm_add_l	arm_rot_l	elbow_flex_l	pro_sup_l
      3.40416670	    -16.10233374	     -0.43145292	     -1.43920074	      0.26061117	      0.92886121	     -0.10145178	     29.42262024	     -5.42469455	     -0.64436221	     20.58457317	      0.35926858	      3.85283786	    -10.48201424	     -7.49999987	     27.13087119	     -4.19291891	      0.55115508	     17.85402305	      0.31161149	      3.11079079	     -6.17042401	     -7.49999987	    -12.59122594	      0.62052907	     -4.21033414	     15.57640771	    -17.99038520	      7.82782997	     16.27808590	     67.28989433	     20.31888503	    -17.94432600	     14.61290148	     32.13660235	     63.11419110
      3.40833330	    -15.97860427	     -0.25403908	     -1.65373434	      0.25971412	      0.93401822	     -0.10247923	     29.15187192	     -5.61677339	     -0.58083225	     20.13068951	      0.35134681	      3.51536641	    -10.23441959	     -7.49999987	     26.57267420	     -3.95071340	      0.44159718	     17.28548024	      0.30168854	      3.04084934	     -6.24129743	     -7.49999987	    -12.47571287	      0.57672389	     -4.19104693	     14.82328557	    -18.03488777	      7.89944160	     15.92803095	     67.29257861	     19.35607316	    -17.97575933	     14.71041041	     31.62193484	     63.13590670
      3.41250000	    -15.33854994	     -0.05997562	     -1.92210328	      0.26086461	      0.93181115	     -0.10513923	     28.31097806	     -5.87978813	     -0.50040414	     19.65940483	      0.34312134	      3.22001554	     -9.99673613	     -7.49999987	     25.33937432	     -3.63313169	      0.37533454	     16.42604730	      0.28668861	      2.62164391	     -6.53931222	     -7.49999987	    -12.91552612	      0.45294044	     -4.22480275	     14.51114643	    -18.04799550	      8.07761714	     14.87378881	     66.80963377	     18.75421750	    -17.85141414	     14.75157789	     30.26835589	     62.98002439
      3.41666670	    -15.09126766	      0.06233541	     -2.09232892	      0.26249632	      0.93211747	     -0.10647241	     27.85418275	     -6.09100945	     -0.54061901	     19.29602378	      0.33677915	      3.19834825	     -9.33672099	     -7.49999987	     24.62383418	     -3.37327160	      0.23040708	     15.73461475	      0.27462083	      2.69338901	     -6.44037622	     -7.49999987	    -12.67402094	      0.36652810	     -3.96445720	     13.84641961	    -18.43040581	     11.00932334	     13.73992776	     66.75852607	     18.48254250	    -17.66653747	     16.72874244	     28.17995220	     63.46687129
      3.42083330	    -14.80330491	      0.16202899	     -2.29482398	      0.26323896	      0.92985784	     -0.10688678	     27.46077874	     -6.22397773	     -0.40216673	     19.11458373	      0.33361242	      3.25514812	     -8.99560156	     -7.49999987	     23.94725637	     -3.18531575	      0.11846343	     15.20536600	      0.26538370	      2.80041712	     -6.49331939	     -7.49999987	    -12.62199883	      0.31098075	     -3.82908988	     13.28854437	    -18.46786343	     11.11475607	     12.95977231	     66.32037089	     17.71015070	    -17.47984936	     16.66598590	     27.33479146	     63.23787141
      3.42500000	    -14.58703736	      0.23667334	     -2.42864993	      0.26728566	      0.92834800	     -0.10611192	     27.06582392	     -6.30108842	     -0.25475195	     19.04176768	      0.33234154	      3.43639481	     -8.77762347	     -7.49999987	     23.24890664	     -3.07978200	      0.01645215	     14.64681656	      0.25563517	      2.89299052	     -6.64048723	     -7.49999987	    -12.38128157	      0.27887644	     -3.82300342	     12.64558291	    -18.43177732	     11.50006013	     12.07776473	     65.96270718	     16.79231249	    -17.37789223	     16.68507578	     26.39478628	     63.01013982
      3.42916670	    -14.40153660	      0.31983803	     -2.62746194	      0.27206973	      0.92708857	     -0.10638585	     26.64593008	     -6.43409018	     -0.37562977	     19.00718349	      0.33173793	      4.07043584	     -8.09581505	     -7.49999987	     22.48785715	     -3.02465050	     -0.21190580	     14.10688289	      0.24621155	      3.36494976	     -6.42811515	     -7.49999987	    -11.83743631	      0.16248953	     -3.36371432	     11.53133046	    -18.69342529	     15.91104162	     10.86757957	     66.05342414	     16.26576194	    -17.21714889	     18.65545543	     24.19293995	     62.99701708
      3.43333330	    -14.21819259	      0.37008072	     -2.90824832	      0.27592914	      0.92422175	     -0.10496667	     26.22375578	     -6.36462920	     -0.11628955	     19.11184497	      0.33356462	      4.47412805	     -8.06400339	     -7.49999987	     21.64094664	     -3.07144243	     -0.36789622	     13.49415940	      0.23551751	      3.72375600	     -6.59759898	     -7.49999987	    -11.26834686	      0.11378362	     -3.38080674	     10.92856688	    -18.62828715	     21.91782344	      9.43481398	     60.52907432	     14.84528458	    -17.31270232	     19.17677100	     23.13882564	     60.53827718
      3.43750000	    -14.09106895	      0.37571001	     -3.13706409	      0.27798802	      0.92504317	     -0.10857402	     25.85468262	     -6.37574139	      0.05932693	     19.12878000	      0.33386019	      4.75048276	     -8.02258376	     -7.49999987	     20.92878209	     -3.02436134	     -0.33825236	     12.97805786	      0.22650984	      4.19003714	     -6.80632038	     -7.49999987	    -10.71079805	      0.19889829	     -3.21221129	      9.84813424	    -18.60652253	     22.00019113	      9.08488358	     60.53844517	     13.52689565	    -17.18938779	     19.26729693	     22.67488926	     60.54356347
